<?xml version="1.0" encoding="iso-8859-1"?>
<!-- Uploaded to: SVG Repo, www.svgrepo.com, Generator: SVG Repo Mixer Tools -->
<svg height="800px" width="800px" version="1.1" id="Layer_1" xmlns="http://www.w3.org/2000/svg" xmlns:xlink="http://www.w3.org/1999/xlink" 
	 viewBox="0 0 512 512" xml:space="preserve">
<circle style="fill:#126DB1;" cx="256" cy="256" r="256"/>
<path style="fill:#125D95;" d="M256,0c-11.317,0-22.461,0.744-33.391,2.167C348.216,18.53,445.217,125.933,445.217,256
	s-97.002,237.47-222.609,253.833C233.539,511.256,244.683,512,256,512c141.385,0,256-114.616,256-256S397.385,0,256,0z"/>
<g>
	<path style="fill:#FFFFFF;" d="M322.783,233.183c-18.984,0-36.413,6.78-50,18.04l-7.504-5.658
		c-10.744-8.101-23.574-12.383-37.104-12.383c-17.973,0-34.173,7.72-45.471,20.013l-4.252-4.804
		c-8.555-9.666-20.858-15.209-33.755-15.209c-24.856,0-45.078,20.222-45.078,45.078v31.42c0,7.531,6.127,13.658,13.658,13.658H166.4
		v19.733c0,7.531,6.127,13.658,13.658,13.658h64.255v19.733c0,7.531,6.127,13.658,13.658,13.658h129.623
		c7.531,0,13.658-6.127,13.658-13.658v-64.811C401.252,268.384,366.051,233.183,322.783,233.183z"/>
	<path style="fill:#FFFFFF;" d="M322.783,88.487c-30.994,0-56.209,25.215-56.209,56.209c0,0.456,0.023,0.907,0.034,1.361
		c-4.477-20.173-22.499-35.309-44-35.309c-24.856,0-45.078,20.222-45.078,45.078c0,0.985,0.043,1.959,0.106,2.928
		c-3.679-14.768-17.05-25.746-32.941-25.746c-18.719,0-33.948,15.229-33.948,33.948s15.229,33.948,33.948,33.948
		c18.719,0,33.948-15.229,33.948-33.948c0-0.456-0.017-0.908-0.035-1.361c4.477,20.173,22.499,35.309,44,35.309
		c24.853,0,45.073-20.217,45.078-45.069c5.183,25.676,27.915,45.069,55.096,45.069c30.994,0,56.209-25.215,56.209-56.209
		S353.776,88.487,322.783,88.487z"/>
</g>
</svg>