<!DOCTYPE svg PUBLIC "-//W3C//DTD SVG 1.1//EN" "http://www.w3.org/Graphics/SVG/1.1/DTD/svg11.dtd">
<!-- Uploaded to: SVG Repo, www.svgrepo.com, Transformed by: SVG Repo Mixer Tools -->
<svg fill="#e6770f" version="1.1" id="Capa_1" xmlns="http://www.w3.org/2000/svg" xmlns:xlink="http://www.w3.org/1999/xlink" width="800px" height="800px" viewBox="0 0 47 47" xml:space="preserve" stroke="#e6770f">
<g id="SVGRepo_bgCarrier" stroke-width="0"/>
<g id="SVGRepo_tracerCarrier" stroke-linecap="round" stroke-linejoin="round"/>
<g id="SVGRepo_iconCarrier"> <g> <g> <path d="M28.1,28.6L28,27.1l0,0c0-0.5-0.3-0.6-0.5-0.1l-2.1,3.5c-0.301,0.5-0.301,1.2,0,1.7l2.3,3.7c0.3,0.5,0.5,0.399,0.5-0.2 v-1.4c0.3,0,2.2-0.1,3.2-0.2c1.1-0.1,1.399-1,1.399-1l2.8-5.3C33.1,29.2,28.1,28.6,28.1,28.6z"/> <path d="M36.8,24.1l-2.6-4.5c-0.3-0.5-0.9-0.6-1.4-0.3l-3.2,2c-0.5,0.3-0.6,0.9-0.3,1.4c0,0,3.3,5.399,3.4,5.6 C34,27.9,35.8,27.6,36.6,26.4C37,25.7,37.2,24.8,36.8,24.1z"/> <path d="M20,10.3c-0.7-0.1-1.6,0.2-2,0.8l-2.8,4.4c-0.3,0.5-0.1,1.1,0.3,1.4l3.2,1.9c0.5,0.3,1.1,0.1,1.4-0.4c0,0,3.3-5.4,3.4-5.5 C22.6,11.8,21.5,10.4,20,10.3z"/> <path d="M21,28.8c0,0-6.3-0.3-6.5-0.399c-0.4,1.3-1.2,2.899-0.6,4.3c0.3,0.7,0.9,1.399,1.7,1.399l1,0.101l0,0l4.2,0.3 c0.5,0,1-0.4,1-0.9L22,29.9C22,29.3,21.6,28.8,21,28.8z"/> <path d="M30.4,17.4l2.199-3.8c0.301-0.5,0.101-0.7-0.399-0.4L31,13.9c-0.1-0.2-1.1-1.9-1.6-2.7C28.8,10.3,27.8,10.4,27.8,10.4h-6 c2.3,1.6,4.101,6.3,4.101,6.3L24.6,17.5C24.1,17.8,24.2,18,24.7,18l4.1,0.2C29.4,18.3,30.1,17.9,30.4,17.4z"/> <path d="M18.2,25.3c0.5,0.3,0.6,0.101,0.4-0.399l-1.8-3.8c-0.2-0.5-0.9-0.9-1.4-0.9L11,20c-0.5,0-0.6,0.2-0.2,0.5l1.2,0.8 c-0.1,0.2-1.2,1.9-1.6,2.7c-0.5,0.9,0,1.8,0,1.8l2.8,5.2c0.3-2.8,3.6-6.6,3.6-6.6L18.2,25.3z"/> <path d="M23.5,0C10.5,0,0,10.5,0,23.5S10.5,47,23.5,47S47,36.5,47,23.5S36.5,0,23.5,0z M23.5,42C13.3,42,5,33.7,5,23.5 S13.3,5,23.5,5S42,13.3,42,23.5S33.7,42,23.5,42z"/> </g> </g> </g>
</svg>